HIERARCHY
ROOT root
{
	OFFSET 0.000000 0.000000 0.000000
	CHANNELS 6 Xposition Yposition Zposition Zrotation Yrotation Xrotation
	JOINT lhip
	{
		OFFSET 0.058581 -0.082280 -0.017664
		CHANNELS 3 Zrotation Yrotation Xrotation
		JOINT lknee
		{
			OFFSET 0.043451 -0.386469 0.008037
			CHANNELS 3 Zrotation Yrotation Xrotation
			JOINT lankle
			{
				OFFSET -0.014790 -0.426874 -0.037428
				CHANNELS 3 Zrotation Yrotation Xrotation
				JOINT ltoe
				{
					OFFSET 0.041054 -0.060286 0.122042
					CHANNELS 3 Zrotation Yrotation Xrotation
					End Site
					{
						OFFSET 0.000000 0.000000 0.000000
					}
				}
			}
		}
	}
	JOINT rhip
	{
		OFFSET -0.060310 -0.090513 -0.013543
		CHANNELS 3 Zrotation Yrotation Xrotation
		JOINT rknee
		{
			OFFSET -0.043257 -0.383688 -0.004843
			CHANNELS 3 Zrotation Yrotation Xrotation
			JOINT rankle
			{
				OFFSET 0.019056 -0.420046 -0.034562
				CHANNELS 3 Zrotation Yrotation Xrotation
				JOINT rtoe
				{
					OFFSET -0.034840 -0.062106 0.130323
					CHANNELS 3 Zrotation Yrotation Xrotation
					End Site
					{
						OFFSET 0.000000 0.000000 0.000000
					}
				}
			}
		}
	}
	JOINT lowerback
	{
		OFFSET 0.004439 0.124404 -0.038385
		CHANNELS 3 Zrotation Yrotation Xrotation
		JOINT upperback
		{
			OFFSET 0.004488 0.137956 0.026820
			CHANNELS 3 Zrotation Yrotation Xrotation
			JOINT chest
			{
				OFFSET -0.002265 0.056032 0.002855
				CHANNELS 3 Zrotation Yrotation Xrotation
				JOINT lowerneck
				{
					OFFSET -0.013390 0.211636 -0.033468
					CHANNELS 3 Zrotation Yrotation Xrotation
					JOINT upperneck
					{
						OFFSET 0.010113 0.088937 0.050410
						CHANNELS 3 Zrotation Yrotation Xrotation
						End Site
						{
							OFFSET 0.000000 0.000000 0.000000
						}
					}
				}
				JOINT lclavicle
				{
					OFFSET 0.071702 0.114000 -0.018898
					CHANNELS 3 Zrotation Yrotation Xrotation
					JOINT lshoulder
					{
						OFFSET 0.122921 0.045205 -0.019046
						CHANNELS 3 Zrotation Yrotation Xrotation
						JOINT lelbow
						{
							OFFSET 0.255332 -0.015649 -0.022946
							CHANNELS 3 Zrotation Yrotation Xrotation
							JOINT lwrist
							{
								OFFSET 0.265709 0.012698 -0.007375
								CHANNELS 3 Zrotation Yrotation Xrotation
								End Site
								{
									OFFSET 0.000000 0.000000 0.000000
								}
							}
						}
					}
				}
				JOINT rclavicle
				{
					OFFSET -0.082954 0.112472 -0.023707
					CHANNELS 3 Zrotation Yrotation Xrotation
					JOINT rshoulder
					{
						OFFSET -0.113228 0.046853 -0.008472
						CHANNELS 3 Zrotation Yrotation Xrotation
						JOINT relbow
						{
							OFFSET -0.260127 -0.014369 -0.031269
							CHANNELS 3 Zrotation Yrotation Xrotation
							JOINT rwrist
							{
								OFFSET -0.269108 0.006794 -0.006027
								CHANNELS 3 Zrotation Yrotation Xrotation
								End Site
								{
									OFFSET 0.000000 0.000000 0.000000
								}
							}
						}
					}
				}
			}
		}
	}
}
MOTION
Frames: 7
Frame Time: 0.033333
0.000357 -0.152728 0.946250 -177.024714 -0.643944 90.763307 8.854715 0.308491 -18.944744 -8.252381 -5.254834 26.291130 2.277510 2.387905 -13.389554 0.000000 -0.000000 0.000000 -11.933687 -7.773684 -17.560183 0.740959 -3.313298 25.924415 2.744467 -3.141152 -13.538801 0.000000 -0.000000 0.000000 1.363921 4.848260 16.882049 3.327881 -4.657362 6.997060 1.922943 0.581201 -3.576354 -0.170346 10.666831 10.481109 3.277508 1.850291 14.664135 -15.239706 -28.306426 3.352448 -80.207133 -29.665537 29.828739 -0.120072 -14.020040 16.080354 -1.832012 13.199011 -30.144881 18.987451 26.634855 8.635592 73.962560 31.631196 18.162281 -11.797330 6.752684 -20.272015 14.284671 5.134859 -53.830600 
0.000654 -0.151773 0.946367 -176.851801 -0.661137 90.752726 8.817258 0.290479 -18.926124 -8.213287 -5.233732 26.326574 2.361839 2.300654 -13.411980 0.000000 -0.000000 0.000000 -11.957041 -7.798208 -17.473633 0.657182 -3.545471 26.015315 2.735859 -3.029628 -13.575099 0.000000 -0.000000 0.000000 1.491295 4.888378 16.910398 3.332782 -4.638231 6.957330 1.844836 0.509709 -3.583169 0.054107 10.638397 10.399707 3.106163 1.611431 15.070454 -15.247405 -28.292887 3.657101 -80.126059 -29.662339 29.757422 -0.058551 -14.454939 17.767369 -3.989674 11.871729 -30.328575 18.864670 26.365401 8.688467 74.330649 31.848801 17.996158 -12.111543 6.530762 -20.040934 14.790113 6.707453 -54.828763 
0.001177 -0.150971 0.946449 -176.878864 -0.630859 90.801161 8.936630 0.309661 -18.943588 -8.293893 -5.195906 26.346214 2.291014 2.291206 -13.404770 0.000000 -0.000000 0.000000 -11.855288 -7.776936 -17.508771 0.605158 -3.532850 26.051104 2.703658 -3.060466 -13.617761 0.000000 -0.000000 0.000000 1.478970 4.855285 16.840545 3.351800 -4.619927 6.982089 1.849884 0.560310 -3.510776 0.124309 10.680053 10.348919 3.093932 1.551580 15.187208 -15.213978 -28.216798 3.650080 -80.143651 -29.727774 29.761181 -0.011833 -14.434532 17.692959 -4.033398 11.653760 -30.168540 18.839911 26.278468 8.685403 74.341940 32.062304 18.011965 -11.999468 6.459124 -20.060134 14.926752 6.587896 -54.811908 
0.001438 -0.150139 0.946515 -176.928003 -0.624239 90.884817 8.932195 0.370313 -19.001754 -8.270001 -5.165076 26.428191 2.269715 2.286527 -13.426991 0.000000 -0.000000 0.000000 -11.846595 -7.769726 -17.604840 0.645495 -3.549055 26.126401 2.700729 -2.953453 -13.571582 0.000000 -0.000000 0.000000 1.492806 4.976814 16.738207 3.355228 -4.534550 6.932242 1.887908 0.523633 -3.493744 0.117433 10.670412 10.634188 3.178366 1.656225 15.182760 -15.294538 -28.331716 3.735963 -80.152809 -29.799079 29.714589 0.016007 -14.303377 17.077437 -3.567610 11.725853 -30.044883 18.767097 26.230004 8.599602 74.411755 32.001115 17.984573 -12.047896 6.455062 -20.226328 14.946886 6.445995 -54.526375 
0.001473 -0.149671 0.946697 -176.956131 -0.585671 90.908166 8.957213 0.382673 -18.979798 -8.217401 -5.124259 26.413260 2.283581 2.310272 -13.395564 0.000000 -0.000000 0.000000 -11.796209 -7.708785 -17.589480 0.622427 -3.591273 26.086908 2.658321 -3.019993 -13.568375 0.000000 -0.000000 0.000000 1.511015 5.014281 16.696896 3.359001 -4.452031 6.862887 1.941468 0.450914 -3.380147 0.111595 10.583817 10.627771 3.197618 1.716101 15.265520 -15.377737 -28.454317 3.877537 -80.126340 -29.815377 29.645105 0.227227 -14.345891 16.929032 -3.833574 11.755426 -29.903066 18.772002 26.353258 8.653381 74.296950 32.015792 17.852561 -12.139027 6.379686 -20.390073 15.342203 6.641938 -54.549418 
0.001492 -0.149232 0.946707 -176.914702 -0.571381 90.837735 8.966881 0.375167 -18.893282 -8.171310 -5.066647 26.397737 2.191129 2.223424 -13.394893 0.000000 -0.000000 0.000000 -11.808388 -7.698176 -17.476958 0.607708 -3.670423 26.057038 2.638344 -2.928999 -13.617516 0.000000 -0.000000 0.000000 1.580974 4.871539 16.876996 3.343217 -4.557648 6.967865 1.884475 0.505912 -3.520109 0.185636 10.659872 10.367684 3.068424 1.576116 15.581331 -15.339656 -28.262207 3.908704 -80.244605 -29.821898 29.576079 0.516048 -14.422734 17.179228 -4.279511 11.250673 -30.200580 18.748964 26.402846 8.554972 74.417662 31.931967 17.970953 -12.217376 6.480308 -20.242223 15.186607 6.838422 -55.238419 
0.001418 -0.148919 0.946672 -176.903923 -0.627171 90.824090 8.916489 0.369191 -18.828601 -8.192160 -5.082581 26.320344 2.168010 2.234789 -13.367612 0.000000 -0.000000 0.000000 -11.889268 -7.698502 -17.406014 0.596346 -3.698489 26.014793 2.675075 -2.976253 -13.651607 0.000000 -0.000000 0.000000 1.559187 4.856874 16.885057 3.334647 -4.566986 6.974897 1.835622 0.524860 -3.496072 0.178451 10.612674 10.394884 3.121992 1.462851 15.523481 -15.199926 -28.238123 3.728184 -80.372888 -29.806722 29.710111 0.365550 -14.301254 17.207828 -3.970224 11.320214 -30.456218 18.693520 26.245888 8.503450 74.562620 31.963735 18.010564 -12.288739 6.573546 -20.261798 14.925101 6.728586 -55.420792 
